<?xml version="1.0" standalone="no"?>
<!DOCTYPE svg PUBLIC "-//W3C//DTD SVG 20010904//EN"
 "http://www.w3.org/TR/2001/REC-SVG-20010904/DTD/svg10.dtd">
<svg version="1.0" xmlns="http://www.w3.org/2000/svg"
 width="1280.000000pt" height="1280.000000pt" viewBox="0 0 1280.000000 1280.000000"
 preserveAspectRatio="xMidYMid meet">
<metadata>
Created by potrace 1.11, written by Peter Selinger 2001-2013
</metadata>
<g transform="translate(0.000000,1280.000000) scale(0.100000,-0.100000)"
fill="#ffffff" stroke="none">
<path d="M7860 8312 c0 -4 48 -15 108 -25 257 -42 580 -141 815 -247 272 -124
493 -273 791 -536 252 -222 329 -286 463 -382 476 -339 1110 -644 1868 -898
356 -119 840 -259 873 -252 10 2 -44 21 -118 42 -654 185 -1242 407 -1731 652
-525 262 -880 502 -1225 825 -475 445 -1024 710 -1676 808 -151 23 -168 24
-168 13z"/>
<path d="M6110 8249 c-241 -10 -574 -38 -810 -68 -370 -49 -359 -46 -669 -153
-405 -139 -803 -293 -1096 -423 -82 -37 -162 -72 -177 -78 -38 -16 -35 -29 5
-22 65 11 330 25 667 36 392 13 955 6 1500 -17 609 -26 632 -21 896 222 194
178 294 264 410 353 101 76 118 109 67 129 -28 12 -401 33 -528 30 -38 0 -158
-5 -265 -9z"/>
<path d="M7418 8121 c-245 -54 -429 -161 -626 -365 -93 -96 -262 -330 -262
-361 0 -8 93 -15 303 -24 166 -6 408 -16 537 -21 659 -27 850 -34 898 -31 6 1
12 7 12 14 0 22 125 233 183 310 30 40 84 103 121 140 70 73 79 98 43 121 -74
49 -460 167 -677 207 -158 30 -419 35 -532 10z"/>
<path d="M8723 7781 c-57 -45 -128 -131 -205 -251 -103 -159 -118 -203 -72
-220 14 -6 143 -10 292 -10 368 0 649 -23 787 -65 27 -8 51 -12 54 -10 2 3
-13 31 -34 62 -62 93 -228 251 -340 325 -120 79 -372 208 -408 208 -14 0 -47
-17 -74 -39z"/>
<path d="M3515 7460 c-121 -4 -251 -10 -290 -14 -38 -3 -146 -13 -240 -21
-224 -21 -441 -42 -540 -55 -44 -5 -138 -17 -210 -25 -505 -61 -984 -156
-1240 -245 -103 -36 -335 -147 -335 -160 0 -5 28 1 63 14 105 40 266 84 386
105 244 44 977 16 1026 -40 24 -25 16 -48 -64 -197 -83 -155 -273 -532 -267
-532 2 0 30 36 61 81 193 275 499 546 770 681 102 51 148 64 375 103 113 19
282 48 377 64 618 107 1233 169 1851 187 133 4 241 8 240 9 -5 4 -282 14 -558
20 -140 3 -361 10 -490 15 -373 15 -677 18 -915 10z"/>
<path d="M1055 7006 c-371 -80 -445 -121 -505 -276 -36 -95 -95 -291 -105
-347 -9 -54 16 -110 53 -120 15 -3 126 -1 247 6 121 7 357 16 525 20 288 8
308 10 353 31 87 41 159 128 285 343 89 150 112 202 112 251 0 87 -10 90 -390
106 -129 5 -278 11 -330 14 -81 4 -118 -1 -245 -28z"/>
<path d="M2795 7023 c-91 -15 -258 -121 -345 -220 -86 -98 -118 -228 -75 -301
76 -127 324 -83 496 88 159 158 197 342 85 415 -26 17 -110 27 -161 18z"/>
<path d="M3369 7011 c-76 -24 -171 -76 -224 -123 -94 -83 -132 -223 -81 -298
22 -32 121 -98 132 -88 2 3 -18 27 -45 54 -80 80 -86 152 -21 242 41 56 124
120 231 176 115 61 118 71 8 37z"/>
<path d="M3520 7014 c-128 -34 -290 -134 -343 -212 -74 -106 -73 -182 3 -245
90 -76 289 -60 430 35 95 63 190 197 190 268 0 85 -103 172 -200 169 -14 0
-50 -7 -80 -15z"/>
<path d="M2540 6941 c-117 -71 -230 -175 -259 -236 -37 -79 -25 -140 40 -200
25 -23 30 -26 24 -10 -29 76 -27 131 7 200 46 93 111 159 274 282 55 41 9 22
-86 -36z"/>
<path d="M440 6753 c-114 -118 -217 -390 -164 -434 15 -12 21 -8 55 30 44 49
156 264 188 359 22 63 17 102 -11 102 -7 0 -37 -26 -68 -57z"/>
<path d="M5135 6624 c-310 -61 -535 -389 -585 -853 -25 -222 16 -507 104 -720
88 -217 261 -377 459 -425 87 -22 194 -31 243 -21 l39 8 -79 19 c-292 68 -455
288 -538 723 -19 103 -23 152 -23 345 1 195 4 239 23 334 41 197 100 319 206
426 90 91 201 140 346 154 79 7 79 7 35 17 -58 12 -150 9 -230 -7z"/>
<path d="M9485 6233 c-34 -64 -129 -185 -189 -241 -99 -94 -194 -123 -436
-136 -112 -6 -231 -13 -780 -46 -190 -11 -420 -25 -512 -30 -93 -6 -243 -14
-335 -20 -93 -5 -253 -14 -358 -20 -104 -6 -260 -15 -345 -20 -85 -6 -170 -10
-187 -10 -18 0 -33 -3 -33 -7 0 -5 46 -7 102 -6 57 1 423 7 813 13 1564 23
1942 31 1985 41 59 13 133 68 164 122 15 24 50 115 80 203 30 87 58 167 61
177 13 32 -10 17 -30 -20z"/>
<path d="M8600 5594 c-65 -6 -1244 -45 -1810 -60 -743 -21 456 -49 1635 -39
490 4 917 10 950 15 33 4 56 8 50 9 -504 74 -564 81 -674 79 -64 -1 -132 -3
-151 -4z"/>
<path d="M3990 5530 c-74 -4 -245 -8 -380 -9 l-245 -1 -19 -35 c-28 -51 -108
-122 -169 -150 -91 -43 -97 -43 -847 -81 -381 -18 -1070 -21 -1285 -5 -384 29
-594 56 -758 97 -110 27 -155 44 -199 75 -35 25 -37 24 -68 -59 -11 -29 -20
-75 -20 -102 0 -43 5 -55 37 -91 114 -126 399 -177 1248 -221 324 -17 1639
-17 1915 0 569 35 1035 76 1056 93 7 5 14 86 19 216 4 115 8 224 9 243 l1 35
-80 1 c-44 0 -141 -2 -215 -6z"/>
<path d="M4476 5399 c-4 -13 -10 -131 -13 -261 -5 -206 -8 -238 -22 -243 -9
-4 -74 -11 -145 -15 -71 -5 -131 -12 -134 -15 -8 -8 126 -143 210 -212 82 -67
121 -79 285 -93 152 -12 463 -13 463 -2 0 5 -19 15 -42 22 -112 33 -252 124
-341 220 -123 133 -217 345 -234 530 -7 78 -17 103 -27 69z"/>
<path d="M10670 5294 c-13 -3 -754 -77 -1190 -119 -85 -8 -200 -20 -255 -25
-121 -12 -342 -32 -765 -70 -806 -73 -1720 -140 -1895 -140 -41 0 -65 -4 -65
-11 0 -8 48 -10 173 -5 94 3 546 9 1002 12 l830 6 350 54 c193 30 492 77 665
104 173 27 475 74 670 105 195 30 388 60 428 66 39 7 72 16 72 20 0 5 -1 8 -2
8 -2 -1 -10 -3 -18 -5z"/>
<path d="M840 4852 c0 -39 164 -166 306 -239 181 -92 290 -118 489 -117 135 1
158 4 235 29 160 52 285 126 405 238 l70 66 -500 1 c-465 0 -913 12 -977 26
-16 3 -28 1 -28 -4z"/>
</g>
</svg>
